<svg xmlns="http://www.w3.org/2000/svg" width="3600px" height="1010px" viewBox="0 0 3600 1010"><path d="M2133.105 76.531h17.579l27.246 1.758 39.55 5.273 27.247 5.274 21.972 6.156 26.367 8.79 18.457 7.906 2.637 2.64v1.758l-7.91-.883-24.61-6.148-21.972-4.399-33.398-4.39-15.82-.883h-37.794l-27.246 2.64-30.762 5.274-25.488 6.148-23.73 7.032-27.246 10.546-22.852 10.547-20.215 10.547-18.457 11.43-10.547 7.031-12.304 8.79-7.91 6.148-14.063 11.43-11.426 10.546-7.031 6.149-17.578 17.578-7.91 9.672-8.79 9.664-10.546 14.062-10.547 14.945-10.547 16.696-8.79 15.82-9.667 18.461-10.547 23.727-9.668 25.492L1800 409.64l-7.031 36.03-2.637 15.821-1.758 17.578-.879 15.82v33.4l2.637 30.765 5.273 31.64 5.274 23.727 7.031 22.851 8.79 24.61 9.667 21.976 9.668 20.211 10.547 18.461 8.79 14.063 12.304 17.578 8.789 11.422 9.668 11.43 6.152 7.03 14.063 14.938 10.547 10.547 7.03 6.156 10.548 9.664 23.73 18.461 15.82 10.547 13.184 7.906 18.457 10.547 24.61 12.305 24.609 9.672 31.64 10.547 21.094 5.273 17.578 3.516 35.157 4.39 38.671 2.641 36.914.875v2.64l-8.789 1.759-49.218 4.39-12.305.883h-51.855l-23.73-2.64-33.4-5.274-35.156-8.79-31.64-10.546-27.246-11.422-18.457-8.789-20.215-11.43-15.82-9.664-17.579-12.304-11.425-8.79-9.668-7.914-8.79-7.906-7.03-6.156-10.548-10.547-6.152-5.273-6.152-7.032-8.79-8.789-7.91-9.664-8.789-10.547-12.304-16.703-8.79-13.18-14.94-24.609-5.274-10.547-7.031.875-15.82 5.274-24.61 5.273-19.336 2.64h-41.309l-21.093-2.64-15.82-3.515-26.368-8.79-18.457-8.789-15.82-9.664-10.547-7.914-12.305-10.547-10.547-10.546-6.152-7.032-8.79-11.422-10.546-17.578-8.789-18.46-6.152-18.454-4.395-20.218-1.758-12.305-.879-23.727 1.758-18.46 3.516-19.337 4.394-16.695 7.91-20.219 7.91-14.062 10.548-15.82 7.91-9.665 7.91-8.789 10.547-10.546 14.941-11.43 8.79-6.149 14.062-7.914 16.699-7.906 18.457-6.156 22.852-5.274 21.972-2.632h38.672l20.215 1.757 14.941 3.516 9.668 3.516 1.758-3.516 14.941-32.523 9.668-19.336 10.547-17.579 7.91-12.304 7.032-10.547 12.304-16.695 8.79-10.547 7.91-9.672 7.03-7.031 6.153-7.032 16.7-16.695 7.03-6.156h1.759V182l9.668-7.906 14.062-11.43 15.82-11.422 16.7-10.547 21.093-12.304 18.457-9.672 28.125-12.305 23.73-8.789 28.126-7.906 22.851-5.274 27.246-4.398 27.247-2.633ZM416.602 313.836h6.152l2.637 1.758-6.153 7.031-8.789 7.914-13.183 13.18-6.153 7.031-13.183 13.188-6.153 7.03-9.668 9.665-.879 1.758h-1.757l-1.758 3.515-19.336 19.336-6.152 7.031-13.184 13.188-6.152 7.031-24.61 24.61-6.152 7.03-2.637.876-.879 2.64-6.152 5.274-.879 4.39 6.152 8.79 8.79 14.062 12.304 19.336 8.79 13.188 10.546 16.695 8.79 13.187 10.546 16.696 8.79 13.187 7.91 12.305 9.667 14.937 14.063 21.977 13.183 20.21 19.336 29.884 15.82 23.734 9.668 15.82 4.395 7.907-.879 1.757-98.437.883h-63.282l-4.394-1.758-5.274-7.914-10.546-17.578-11.426-18.453-14.942-24.61-16.699-28.124-10.547-17.578-11.426-19.336-13.183-21.977-4.395-7.906-1.757-1.758-4.395.875-9.668 9.672-6.152 7.031L142.383 603l-1.758 3.516-.879 37.789v94.047l-1.758 1.757-6.152.875H0v-425.39l136.23-.875 2.637.875.88 8.789v126.562l9.667-9.664 7.91-9.672 9.668-10.546 6.153-7.032 7.91-8.789 6.152-7.031 11.426-13.18 7.91-8.789 7.91-9.672 9.668-10.547 7.91-9.664 12.305-13.187 7.91-9.664 3.516-4.399 7.031-4.39Zm2828.32 1.758h346.289l1.758 1.758v21.093l-.88 74.711-1.757.875-7.91.883h-196.875l-.879 59.766 173.144.875 1.758.882v96.68l-5.273 1.758h-169.629v66.797H3600v99.312l-286.523.883h-63.282l-5.273-1.758-.879-2.64V317.352Zm-2075.098-11.422h51.856l17.578 1.758 15.82 2.632 20.215 5.274 14.062 5.273 16.7 7.914 18.457 12.305 12.304 10.547 7.032 7.031 9.668 12.305 7.91 12.305 7.031 14.062 5.273 13.18 6.153 22.851v6.157l-8.79 1.757h-122.167l-4.395-4.398-4.394-11.422-3.516-5.273-6.152-5.274-10.547-5.273-14.063-3.516-7.91-.883h-18.457l-13.183 2.641-7.91 3.516-5.274 3.515-4.395 7.031-.878 9.665 3.515 8.789 7.031 7.03 12.305 7.032 18.457 7.031 34.277 9.672 45.704 11.422 25.488 7.914 19.336 7.906 19.336 9.672 14.062 9.664 11.426 9.672 7.031 7.032 10.547 14.062 7.031 14.063 5.274 15.82 2.637 14.062.879 10.547v11.422l-2.637 21.094-3.516 14.945-7.031 17.578-7.91 14.063-7.032 9.664-8.789 10.547h-1.757v1.758l-9.668 7.914-10.547 7.906-14.063 7.914-19.336 8.789-25.488 7.906-21.094 4.399-24.61 3.515-21.093 1.758h-32.52l-24.609-2.64L1125 744.5l-18.457-6.148-18.457-7.914-15.82-8.79-14.942-10.546-10.547-9.664-7.03-6.157-7.911-9.664-7.91-10.547-5.274-9.672-7.03-14.937-3.517-11.43-4.394-18.453v-10.547l.879-.883 75.586-.875h53.613l2.637.875 7.031 15.82 7.91 9.673 6.153 5.273 7.91 5.274 15.82 5.273 10.547 1.758h26.367l15.82-4.399 8.79-4.39 7.91-6.157 5.273-7.906.879-2.64v-6.149l-3.516-8.789-6.152-7.914-8.79-5.273-12.304-5.274-15.82-5.273-41.309-10.547-28.125-7.031-26.367-7.907-24.61-9.672-14.062-7.03-13.183-7.907-12.305-9.672-8.79-7.906-11.425-14.946-7.91-14.937-5.273-14.062-3.516-15.82-.879-6.157v-26.367l2.637-17.578 5.273-17.579 7.031-14.062 7.032-11.422 6.152-7.914 7.91-8.789 8.79-7.906 18.456-12.305 14.942-7.914 17.578-7.031 19.336-5.274 19.336-3.515Zm-389.355 0h50.097l17.579 1.758 16.699 2.632 22.851 6.157 13.184 5.273 14.941 7.031 15.82 10.547 8.79 7.032 9.668 8.789 7.91 9.664 9.668 13.187 7.91 14.063 7.031 17.578 4.395 14.062 2.636 14.063-2.636 2.633-4.395.882H858.691l-4.394-3.515-5.274-14.063-5.273-6.156-9.668-6.148-14.062-4.399-12.305-1.758h-19.336l-12.305 2.641-8.789 3.516-7.031 6.148-2.637 6.156v8.79l2.637 7.03 6.152 7.032 12.305 7.031 12.305 5.274 15.82 5.273 40.43 10.547 28.125 7.031 30.761 9.664 21.094 8.79 16.7 8.788 14.062 9.672 8.789 7.906 4.394 3.516 6.153 7.031 7.031 9.672 8.79 16.696 4.394 13.187 3.515 20.21v25.493l-2.636 15.82-4.395 16.696-7.031 15.82-7.91 14.063-7.91 9.671-7.91 8.79-10.548 9.664-14.062 9.671-14.942 7.907-21.972 8.789-21.094 6.156-22.851 4.39-28.125 3.516-12.305.883h-31.64l-25.49-2.64-25.487-5.274-18.457-6.148-18.457-7.914-14.942-7.907-14.941-10.547-9.668-7.914-14.063-14.062-9.668-13.18-7.91-13.187-8.789-21.97-4.394-16.702-1.758-9.664v-6.157h133.593l8.79 17.579 7.03 8.789 12.306 8.789 14.062 5.273 13.184 2.64h26.367l13.183-3.515 10.547-4.398 7.032-5.274 6.152-7.031 2.637-5.273-.88-7.907-5.273-10.547-7.031-7.03-13.184-6.157-23.73-7.906-52.734-13.188-19.336-5.273-22.852-7.032-21.973-8.789-14.062-7.03-12.305-7.032-11.426-8.79-10.546-9.663-7.032-8.79-7.91-12.304-7.031-14.062-5.274-17.579-2.636-18.46v-19.336l2.636-16.696 3.516-13.187 7.031-17.578 7.91-13.18 8.79-11.43 7.03-7.906 12.305-9.672 14.942-9.664 14.941-7.914 17.578-7.031 22.852-6.149 21.973-3.515Zm2116.406 11.422h329.59l1.758.883v95.796l-4.395 2.641h-187.207l.879 1.758v30.758l-.879 44.828h151.172l1.758 1.758v95.796l-3.516 1.758H3037.5V737.47l-1.758 2.64-2.637.875h-133.593l-2.637-1.757-.879-2.633-.879-202.149v-61.523l.88-152.055Zm0 0" style="stroke:none;fill-rule:nonzero;fill:#e8b7ce;fill-opacity:1"/><path d="m1902.832 314.719 326.074.875 2.637.883.879 2.632v39.555l-.879 54.492-1.758 1.758-6.152.875-182.813-.875v77.344h151.172l.88.875v96.68l-3.517 1.757H2040.82l.88 7.032-.88 140.625-4.394 1.757-89.649.883h-43.066l-3.516-1.758V317.352Zm458.79 0 113.378.875 21.973.883.879.875v283.007l-.88 41.313h189.844l2.637 2.633v93.164l-2.637 3.515-263.671.883h-61.524l-3.516-1.758-.878-1.757v-421l.878-1.758Zm355.077.875h128.32l10.547.883.88.875v421.875l-2.637 1.757h-136.23l-1.759-.875-.879-2.64-.878-43.946.878-261.914.88-115.132Zm-2260.547-.875h137.11l2.636.875.88 30.765v391.993l-1.758 1.757-3.516.875H457.91l-1.758-2.632-.879-5.274V315.594Zm0 0" style="stroke:none;fill-rule:nonzero;fill:#e8b7ce;fill-opacity:1"/></svg>